<svg width="800" height="800" viewBox="0 0 800 800" fill="none" xmlns="http://www.w3.org/2000/svg">
<path d="M318.85 72.9406V107.344H230.878V0.782837H318.85V38.486H268.581V72.9406H318.85ZM409.283 38.486H444.427V0.782837H356.445C356.445 0.782837 356.445 19.7078 356.445 38.486C368.216 50.2563 374.353 55.8907 391.377 72.9141C381.425 72.9141 356.445 72.9469 356.445 72.9469V107.344H444.427V72.9406L409.283 38.486ZM533.978 38.486H569.119V0.782837H481.141C481.141 0.782837 481.141 19.7078 481.141 38.486C492.908 50.2563 499.048 55.8907 516.07 72.9141C506.125 72.9141 481.141 72.9469 481.141 72.9469V107.344H569.12V72.9406L533.978 38.486ZM684.992 157.988L631.55 736.872L399.998 799.216L168.442 736.872L115.008 157.988H684.992ZM577.308 275.694H399.789H219.133L227.772 345.598H399.789H409.452L399.789 349.62L234.059 418.647L239.556 486.975L399.789 487.495L485.669 487.769L480.167 578.88L399.789 601.511V601.439L399.13 601.62L321.498 582.023L316.787 525.469H316.531H244.523H244.27L253.695 634.65L399.789 677.852V677.773L400.052 677.852L545.364 635.436L564.219 418.648H399.789H399.383L399.789 418.473L570.236 345.6L577.308 275.694Z" fill="url(#paint0_linear_38_2)"/>
<defs>
<linearGradient id="paint0_linear_38_2" x1="400" y1="0.782837" x2="400" y2="799.216" gradientUnits="userSpaceOnUse">
<stop stop-color="#D5328B"/>
<stop offset="1" stop-color="#F08A38"/>
</linearGradient>
</defs>
</svg>
