<svg width="204" height="201" viewBox="0 0 204 201" fill="none" xmlns="http://www.w3.org/2000/svg">
<path d="M131.911 76.8009C118.626 76.8009 107.858 87.4099 107.858 100.5C107.858 113.59 118.626 124.199 131.911 124.199H132.689C145.975 124.199 156.742 113.59 156.742 100.5C156.742 87.4099 145.975 76.8009 132.689 76.8009H131.911ZM132.689 135.744H131.911C112.155 135.744 96.1412 119.966 96.1412 100.5C96.1412 81.0344 112.155 65.2559 131.911 65.2559H132.689C152.445 65.2559 168.459 81.0344 168.459 100.5C168.459 119.966 152.445 135.744 132.689 135.744ZM71.3106 135.744C58.0251 135.744 47.2514 146.353 47.2514 159.443C47.2514 172.533 58.0187 183.142 71.3042 183.142C71.3744 183.142 71.4509 183.142 71.521 183.142H71.5082C71.5274 183.142 71.5529 183.142 71.5784 183.142C85.0997 183.142 96.0775 172.376 96.1476 159.066V135.744H71.3106ZM71.5019 194.694C71.419 194.694 71.317 194.694 71.215 194.694C51.4589 194.694 35.4449 178.915 35.4449 159.45C35.4449 139.984 51.4589 124.205 71.215 124.205C71.2469 124.205 71.2787 124.205 71.3106 124.205H107.858V159.066C107.782 178.758 91.5576 194.694 71.5656 194.694C71.5465 194.694 71.5274 194.694 71.5082 194.694H71.5019ZM71.3106 76.8009C58.0251 76.8009 47.2577 87.4099 47.2577 100.5C47.2577 113.59 58.0251 124.205 71.3106 124.205L96.1412 124.199V76.8071L71.3106 76.8009ZM107.852 135.744H71.3106C51.5545 135.744 35.5405 119.966 35.5405 100.5C35.5405 81.0344 51.5545 65.2559 71.3106 65.2559H107.858V135.744H107.852ZM71.3106 17.8576C58.0251 17.8576 47.2577 28.4666 47.2577 41.5568C47.2577 54.6469 58.0251 65.2559 71.3106 65.2559H96.1412V17.8513L71.3106 17.8576ZM107.852 76.8009H71.3106C51.5545 76.8009 35.5341 61.0224 35.5341 41.5505C35.5341 22.0786 51.5481 6.30011 71.3106 6.30011H107.858V76.7946L107.852 76.8009ZM107.852 65.2559H132.689C145.949 65.2245 156.678 54.628 156.678 41.5568C156.678 28.4855 145.943 17.889 132.683 17.8576H107.852V65.2559ZM132.689 76.8009L96.1412 76.8071V6.30639H132.689C152.445 6.30639 168.466 22.0849 168.466 41.5568C168.466 61.0286 152.452 76.8009 132.689 76.8009Z" fill="url(#paint0_linear_13_9190)"/>
<defs>
<linearGradient id="paint0_linear_13_9190" x1="101.955" y1="6.30011" x2="101.955" y2="194.694" gradientUnits="userSpaceOnUse">
<stop stop-color="#D5328B"/>
<stop offset="1" stop-color="#F08A38"/>
</linearGradient>
</defs>
</svg>
