<svg width="75" height="75" viewBox="0 0 75 75" fill="none" xmlns="http://www.w3.org/2000/svg">
<g clip-path="url(#clip0_14_29)">
<path fill-rule="evenodd" clip-rule="evenodd" d="M37.5 0C58.2113 0 75 17.2122 75 38.4485C75 55.4322 64.2675 69.8398 49.3763 74.9286C47.475 75.3073 46.8 74.1066 46.8 73.0829C46.8 71.8154 46.845 67.6755 46.845 62.5305C46.845 58.9455 45.645 56.6057 44.2988 55.4132C52.65 54.4607 61.425 51.2091 61.425 36.4417C61.425 32.2416 59.97 28.8143 57.5625 26.1218C57.9525 25.1506 59.2387 21.2398 57.195 15.9448C57.195 15.9448 54.0525 14.9146 46.8937 19.8871C43.8975 19.0358 40.6875 18.6075 37.5 18.5925C34.3125 18.6075 31.1063 19.0358 28.1138 19.8871C20.9475 14.9146 17.7975 15.9448 17.7975 15.9448C15.7613 21.2398 17.0475 25.1506 17.4338 26.1218C15.0375 28.8143 13.5713 32.2416 13.5713 36.4417C13.5713 51.1716 22.3275 54.4731 30.6563 55.4443C29.5838 56.4043 28.6125 58.0979 28.275 60.5841C26.1375 61.5666 20.7075 63.267 17.3625 57.3907C17.3625 57.3907 15.3787 53.6965 11.6138 53.4265C11.6138 53.4265 7.9575 53.3779 11.3587 55.7629C11.3587 55.7629 13.815 56.9442 15.5212 61.3879C15.5212 61.3879 17.7225 68.2503 28.155 65.9253C28.1738 69.139 28.2075 72.1679 28.2075 73.0829C28.2075 74.0991 27.5175 75.2885 25.6462 74.9323C10.7437 69.851 0 55.436 0 38.4485C0 17.2122 16.7925 0 37.5 0Z" fill="#D5328B"/>
</g>
<defs>
<clipPath id="clip0_14_29">
<rect width="75" height="75" fill="white"/>
</clipPath>
</defs>
</svg>
