<svg width="204" height="201" viewBox="0 0 204 201" fill="none" xmlns="http://www.w3.org/2000/svg">
<g clip-path="url(#clip0_13_9128)">
<path fill-rule="evenodd" clip-rule="evenodd" d="M156.346 185.243C138.547 185.243 127.041 176.882 121.431 165.948L137.037 157.041C141.148 163.654 146.482 168.509 155.938 168.509C163.873 168.509 168.942 164.597 168.942 159.2C168.942 151.08 157.947 147.907 150.185 144.631C136.354 138.832 127.173 131.546 127.173 116.159C127.173 101.999 138.128 91.2057 155.254 91.2057C167.433 91.2057 176.205 95.3858 182.498 106.31L167.576 115.757C164.291 109.958 160.732 107.665 155.254 107.665C149.634 107.665 146.074 111.174 146.074 115.757C146.074 121.425 149.634 123.717 157.855 127.225C175.083 134.501 188.119 140.217 188.119 158.93C188.119 175.935 174.563 185.243 156.346 185.243ZM112.2 156.771C112.2 176.339 99.97 186.681 82.9871 186.681C67.6463 186.681 58.4561 180.9 53.9375 170.85H53.7847H53.7131H53.6723L69.268 160.108C72.277 165.364 74.9904 169.093 81.5592 169.093C87.8628 169.093 91.8 165.948 91.8 156.511V90.45H112.2V156.771ZM0 201H204V0H0V201Z" fill="url(#paint0_linear_13_9128)"/>
</g>
<defs>
<linearGradient id="paint0_linear_13_9128" x1="102" y1="0" x2="102" y2="201" gradientUnits="userSpaceOnUse">
<stop stop-color="#D5328B"/>
<stop offset="1" stop-color="#F08A38"/>
</linearGradient>
<clipPath id="clip0_13_9128">
<rect width="204" height="201" fill="white"/>
</clipPath>
</defs>
</svg>
