<svg width="75" height="75" viewBox="0 0 75 75" fill="none" xmlns="http://www.w3.org/2000/svg">
<g clip-path="url(#clip0_14_27)">
<path d="M37.5 0C16.7871 0 0 16.7871 0 37.5C0 58.2129 16.7871 75 37.5 75C58.2129 75 75 58.2129 75 37.5C75 16.7871 58.2129 0 37.5 0ZM27.0117 53.1885H19.7021V29.7949H27.0117V53.1885ZM23.1592 26.8652H23.1006C20.4492 26.8652 18.7354 25.0781 18.7354 22.8076C18.7354 20.4932 20.5078 18.75 23.2031 18.75C25.8984 18.75 27.5537 20.4932 27.6123 22.8076C27.627 25.0635 25.9131 26.8652 23.1592 26.8652ZM56.25 53.1885H47.959V41.0889C47.959 37.9248 46.6699 35.7568 43.8135 35.7568C41.6309 35.7568 40.415 37.2217 39.8584 38.6279C39.6533 39.126 39.6826 39.8291 39.6826 40.5469V53.1885H31.4648C31.4648 53.1885 31.5674 31.7432 31.4648 29.7949H39.6826V33.4717C40.166 31.8604 42.7881 29.5752 46.9775 29.5752C52.1777 29.5752 56.25 32.9443 56.25 40.1807V53.1885Z" fill="#F08A38"/>
</g>
<defs>
<clipPath id="clip0_14_27">
<rect width="75" height="75" fill="white"/>
</clipPath>
</defs>
</svg>
