<svg width="252" height="243" viewBox="0 0 252 243" fill="none" xmlns="http://www.w3.org/2000/svg">
<g clip-path="url(#clip0_13_9135)">
<path d="M126.004 138.332C135.742 138.332 143.636 130.719 143.636 121.329C143.636 111.939 135.742 104.327 126.004 104.327C116.266 104.327 108.372 111.939 108.372 121.329C108.372 130.719 116.266 138.332 126.004 138.332Z" fill="url(#paint0_linear_13_9135)"/>
<path fill-rule="evenodd" clip-rule="evenodd" d="M127.299 85.4905C157.362 85.6879 190.161 87.8028 212.676 107.163C213.338 107.733 213.975 108.325 214.598 108.936C219.909 114.157 222.685 122.586 218.397 129.523C209.601 143.765 189.929 149.977 170.883 153.8C142.4 159.518 112.616 159.564 84.1443 154.529C67.7604 151.628 51.0063 146.544 39.3631 135.909C34.8311 131.771 30.9566 126.326 31.5629 120.266C32.5473 110.462 42.3005 104.171 50.5102 99.911C73.3122 88.0799 101.095 85.4335 127.299 85.4905ZM125.118 89.9442C96.6734 90.1302 65.8861 91.8806 43.9227 109.418C43.1549 110.03 42.4147 110.671 41.702 111.343C41.2413 111.776 40.7964 112.228 40.3672 112.691C36.5124 116.868 35.1854 123.577 38.8237 128.593C42.4856 133.639 48.0453 137.28 53.7704 140.249C75.1826 151.351 100.485 153.322 125.153 153.405C150.129 153.492 175.884 151.298 197.946 140.298C206.734 135.913 216.625 129.473 216.275 121.181C215.952 113.572 208.258 108.872 202.498 105.515C200.938 104.608 199.336 103.769 197.71 102.979C175.809 92.397 150.145 89.891 125.118 89.9442Z" fill="url(#paint1_linear_13_9135)"/>
<path fill-rule="evenodd" clip-rule="evenodd" d="M165.828 40.638C176.825 40.9076 182.523 53.6575 183.275 63.0737C183.424 64.9456 183.48 66.825 183.456 68.7045C183.432 70.7396 183.318 72.7747 183.133 74.8023C180.814 99.9072 168.927 123.816 154.929 145.895C141.238 167.492 124.543 189.027 101.832 199.036C94.3227 202.347 85.3925 204.39 78.746 200.695C69.6346 195.634 68.6384 183.795 68.8077 174.816C68.8511 172.61 69.0007 170.404 69.2369 168.205C72.7374 135.704 89.8222 104.915 111.203 78.3903C123.677 62.9142 138.517 47.5635 157.004 42.0048C159.914 41.1278 162.225 40.5962 165.828 40.638ZM165.3 45.0879C152.389 45.2853 140.797 54.5118 130.532 64.0989C103.544 89.2987 83.6561 122.814 75.6551 157.961C75.0369 160.684 74.5171 163.425 74.1352 166.185C73.8399 168.323 73.6233 170.472 73.5091 172.629C73.4186 174.345 73.3871 176.065 73.4422 177.785C73.4816 179.129 73.5721 180.473 73.7257 181.81C73.8399 182.831 73.9934 183.849 74.1864 184.858C74.3321 185.606 74.5014 186.351 74.6982 187.091C74.8597 187.691 75.0408 188.287 75.2456 188.879C76.856 193.561 81.0061 198.034 86.5777 198.182C99.5754 198.523 111.813 189.384 122.393 179.452C140.966 162.02 154.807 140.116 165.619 117.092C174.345 98.5023 182.326 78.2954 177.869 57.834C177.699 57.0595 177.502 56.2925 177.278 55.5331C177.093 54.9142 176.884 54.3029 176.656 53.6992C174.923 49.1468 170.848 45.0765 165.3 45.0879Z" fill="url(#paint2_linear_13_9135)"/>
<path fill-rule="evenodd" clip-rule="evenodd" d="M87.0541 40.805C101.087 41.067 113.691 50.2517 124.882 60.5374C145.302 79.3053 160.362 103.18 171.789 128.308C180.641 147.774 188.783 169.625 181.546 190.166C179.266 196.64 173.498 202.563 165.808 202.715C151.708 202.989 138.639 193.101 127.299 182.459C98.8509 155.752 77.7301 120.494 70.493 83.1022C69.9732 80.4292 69.5598 77.7334 69.2763 75.0263C69.044 72.8165 68.8983 70.5953 68.8589 68.3741C68.8274 66.582 68.8668 64.7899 68.9967 63.0054C69.0834 61.8131 69.2094 60.6285 69.3787 59.4477C69.5401 58.339 69.7449 57.2341 70.0008 56.1406C70.1701 55.4154 70.3591 54.6978 70.5757 53.984C72.698 46.9863 78.2184 40.7519 87.0541 40.805ZM86.5226 45.2588C78.305 45.4334 74.5447 54.7775 73.7887 61.3347C73.6351 62.6788 73.5406 64.0343 73.4973 65.3898C73.4422 67.1212 73.4658 68.8563 73.5564 70.5877C74.8479 95.6433 86.4635 119.867 100.481 142.049C113.679 162.932 129.618 183.731 151.542 194.423C157.874 197.51 165.568 199.936 171.037 197.02C177.896 193.36 178.739 184.638 179.105 178.138C179.203 176.369 179.215 174.592 179.156 172.819C179.085 170.594 178.904 168.372 178.632 166.163C176.105 145.519 166.623 125.984 155.732 107.524C142.179 84.5602 125.575 61.6727 102.076 49.7163C97.2089 47.2407 91.9406 45.217 86.5226 45.2588Z" fill="url(#paint3_linear_13_9135)"/>
</g>
<defs>
<linearGradient id="paint0_linear_13_9135" x1="126.004" y1="104.327" x2="126.004" y2="138.332" gradientUnits="userSpaceOnUse">
<stop stop-color="#D5328B"/>
<stop offset="1" stop-color="#F08A38"/>
</linearGradient>
<linearGradient id="paint1_linear_13_9135" x1="126" y1="85.4896" x2="126" y2="158.202" gradientUnits="userSpaceOnUse">
<stop stop-color="#D5328B"/>
<stop offset="1" stop-color="#F08A38"/>
</linearGradient>
<linearGradient id="paint2_linear_13_9135" x1="126.126" y1="40.6357" x2="126.126" y2="202.667" gradientUnits="userSpaceOnUse">
<stop stop-color="#D5328B"/>
<stop offset="1" stop-color="#F08A38"/>
</linearGradient>
<linearGradient id="paint3_linear_13_9135" x1="126.591" y1="40.8047" x2="126.591" y2="202.721" gradientUnits="userSpaceOnUse">
<stop stop-color="#D5328B"/>
<stop offset="1" stop-color="#F08A38"/>
</linearGradient>
<clipPath id="clip0_13_9135">
<rect width="252" height="243" fill="white"/>
</clipPath>
</defs>
</svg>
