<svg width="204" height="201" viewBox="0 0 204 201" fill="none" xmlns="http://www.w3.org/2000/svg">
<path d="M61.8571 136.694C62.0684 143.148 67.6351 148.525 74.302 148.525H74.7392C81.7267 148.309 87.0749 142.616 86.747 135.832C86.747 129.378 81.071 124.008 74.4113 124.008H73.9669C73.5297 124.008 72.8812 124.008 72.3274 124.216C63.2706 109.154 59.4453 93.0157 60.8734 75.6064C61.7405 62.4829 66.1122 51.0753 73.9669 41.6132C80.5172 33.5439 92.8529 29.5594 101.261 29.3513C124.84 28.9134 134.669 57.8596 135.427 69.3677L146.341 72.5911C143.828 37.3129 121.568 18.8051 100.278 18.8051C80.2986 18.8051 61.8571 33.1131 54.4251 54.0905C44.2753 82.0604 50.9349 108.946 63.3799 130.462C62.2942 131.862 61.6385 134.332 61.8571 136.694ZM174.729 105.938C157.817 86.3607 132.92 75.6064 104.533 75.6064H100.817C98.9734 71.6291 94.7182 69.1523 89.9092 69.1523H89.5813C82.7104 69.1523 77.355 74.9674 77.5808 81.7373C77.7994 88.1842 83.3661 93.5685 90.0258 93.5685H90.565C95.4832 93.3532 99.7384 90.3379 101.48 86.0376H105.524C122.348 86.0376 138.276 90.8764 152.797 100.338C163.923 107.546 171.902 117.008 176.375 128.308C180.295 137.555 180.084 146.594 176.048 154.132C169.825 165.956 159.34 172.201 145.482 172.201C136.745 172.201 128.235 169.509 123.863 167.578C121.248 169.718 116.876 173.271 113.706 175.425C123.31 179.718 133.029 182.195 142.414 182.195C163.705 182.195 179.523 170.371 185.534 158.963C192.077 146.055 191.538 124.331 174.831 105.723L174.729 105.938ZM135.762 132.831C142.094 132.293 147.004 126.801 146.684 120.239C146.349 113.677 140.891 108.408 134.239 108.408H133.794C126.924 108.63 121.568 114.323 121.787 121.108C122.005 124.546 123.433 127.346 125.386 129.385C117.75 144.016 106.289 154.771 88.9256 163.809C77.2457 169.825 64.91 172.094 52.9022 170.479C42.8617 169.086 35.0071 164.663 30.1982 157.57C22.9993 146.809 22.3436 135.2 28.3402 123.584C32.7192 115.192 39.2623 109.061 43.6341 106.046C42.5411 103.253 41.2296 98.5221 40.5738 94.9756C8.25193 117.784 11.538 148.97 21.3599 163.709C28.6754 174.463 43.6341 181.341 60.0063 181.341C64.3708 181.341 68.9612 181.025 73.435 179.948C101.822 174.571 123.324 157.793 135.66 133.054L135.762 132.831Z" fill="url(#paint0_linear_13_9188)"/>
<defs>
<linearGradient id="paint0_linear_13_9188" x1="102" y1="18.8051" x2="102" y2="182.195" gradientUnits="userSpaceOnUse">
<stop stop-color="#D5328B"/>
<stop offset="1" stop-color="#F08A38"/>
</linearGradient>
</defs>
</svg>
