<svg width="204" height="201" viewBox="0 0 204 201" fill="none" xmlns="http://www.w3.org/2000/svg">
<g clip-path="url(#clip0_13_9133)">
<path d="M102.008 40.2C74.8084 40.2 57.8084 53.6 51.0084 80.4C61.2084 67 73.1084 61.975 86.7084 65.325C94.4689 67.2345 100.011 72.7788 106.156 78.926C116.161 88.9258 127.729 100.5 153.008 100.5C180.208 100.5 197.208 87.1 204.008 60.3C193.808 73.7 181.908 78.725 168.308 75.375C160.548 73.4655 155.006 67.9213 148.86 61.774C138.864 51.7743 127.296 40.2 102.008 40.2ZM51.0084 100.5C23.8085 100.5 6.80845 113.9 0.00845337 140.7C10.2085 127.3 22.1085 122.275 35.7085 125.625C43.469 127.535 49.0109 133.079 55.1564 139.226C65.1609 149.226 76.7294 160.8 102.008 160.8C129.208 160.8 146.208 147.4 153.008 120.6C142.808 134 130.908 139.025 117.308 135.675C109.548 133.766 104.006 128.221 97.8604 122.074C87.8644 112.074 76.2959 100.5 51.0084 100.5Z" fill="url(#paint0_linear_13_9133)"/>
</g>
<defs>
<linearGradient id="paint0_linear_13_9133" x1="102.008" y1="40.2" x2="102.008" y2="160.8" gradientUnits="userSpaceOnUse">
<stop stop-color="#D5328B"/>
<stop offset="1" stop-color="#F08A38"/>
</linearGradient>
<clipPath id="clip0_13_9133">
<rect width="204" height="201" fill="white"/>
</clipPath>
</defs>
</svg>
